<?xml version="1.0" standalone="no"?>
<!DOCTYPE svg PUBLIC "-//W3C//DTD SVG 20010904//EN"
 "http://www.w3.org/TR/2001/REC-SVG-20010904/DTD/svg10.dtd">
<svg version="1.0" xmlns="http://www.w3.org/2000/svg"
 width="400.000000pt" height="300.000000pt" viewBox="0 0 400.000000 300.000000"
 preserveAspectRatio="xMidYMid meet">

<g transform="translate(0.000000,300.000000) scale(0.100000,-0.100000)"
fill="#000000" stroke="none">
<path d="M1877 2228 c-21 -31 -47 -124 -47 -164 l0 -32 -62 20 c-80 25 -186
22 -217 -6 -28 -26 -81 -133 -81 -165 0 -21 -9 -31 -44 -50 -25 -12 -63 -45
-86 -72 -23 -28 -66 -64 -96 -80 -66 -38 -68 -54 -19 -137 51 -88 120 -159
186 -193 47 -23 59 -34 59 -53 0 -37 35 -141 58 -173 l20 -29 -24 -39 c-44
-74 -28 -195 28 -214 42 -15 116 -13 153 3 27 12 35 11 77 -10 110 -55 188
-69 388 -69 174 1 190 2 267 28 93 31 188 96 222 151 13 20 29 36 36 36 23 0
55 51 55 88 0 22 -14 60 -36 101 l-37 66 9 95 c16 177 11 308 -14 372 -46 114
-146 206 -267 244 -47 15 -54 21 -64 54 -16 54 -64 115 -114 144 -32 19 -67
28 -134 35 -88 9 -136 24 -180 56 -20 16 -22 15 -36 -7z m94 -98 c20 -6 68
-14 106 -19 123 -15 170 -51 203 -155 16 -48 19 -51 71 -67 122 -36 195 -92
241 -187 32 -64 33 -72 33 -182 0 -156 -3 -165 -57 -164 -37 1 -50 7 -87 44
-77 74 -146 89 -201 44 -17 -14 -51 -54 -77 -88 -74 -98 -134 -156 -195 -187
-66 -33 -83 -66 -53 -99 21 -23 58 -34 170 -50 97 -15 115 -23 191 -94 33 -31
68 -56 80 -56 23 0 84 42 126 86 67 72 91 202 54 303 -9 24 -16 45 -16 46 0 1
11 0 25 -3 24 -4 25 -8 25 -75 0 -39 5 -99 11 -135 11 -63 11 -65 -17 -105
-39 -55 -112 -103 -198 -130 -63 -19 -92 -22 -246 -22 -162 1 -181 3 -255 28
-97 32 -126 50 -107 68 32 33 8 35 -50 6 -47 -24 -77 -32 -118 -32 l-55 0 -3
45 c-4 66 26 106 111 149 85 43 78 61 -14 42 -70 -14 -66 -17 -104 64 -31 64
-45 154 -45 283 0 56 -4 102 -9 102 -14 0 -31 -58 -38 -127 -3 -37 -11 -63
-17 -63 -23 0 -84 61 -134 133 l-51 74 44 32 c25 18 60 51 78 73 49 61 97 82
174 75 59 -6 64 -5 79 18 23 35 106 94 164 116 l50 19 45 -35 c38 -29 98 -55
128 -55 18 0 3 19 -44 54 -73 54 -104 134 -83 214 7 25 14 26 65 12z m-208
-146 c15 -5 9 -12 -35 -36 -29 -16 -69 -44 -88 -63 -28 -27 -44 -35 -73 -35
-27 0 -37 4 -37 15 0 25 29 88 53 113 20 22 28 24 92 19 39 -3 78 -9 88 -13z
m653 -602 c47 -35 99 -106 88 -123 -4 -7 -3 -10 4 -5 7 4 15 -14 23 -49 17
-76 0 -148 -47 -204 -34 -39 -86 -78 -69 -51 24 38 -42 119 -123 149 -31 12
-81 34 -110 48 -52 25 -53 25 -75 7 -12 -10 7 13 43 51 36 39 77 86 90 105 70
105 109 120 176 72z m-336 -247 c0 -2 -10 -9 -22 -15 -22 -11 -22 -10 -4 4 21
17 26 19 26 11z m3 -42 c-7 -2 -21 -2 -30 0 -10 3 -4 5 12 5 17 0 24 -2 18 -5z
m65 -10 c-10 -2 -26 -2 -35 0 -10 3 -2 5 17 5 19 0 27 -2 18 -5z m55 -10 c-7
-2 -19 -2 -25 0 -7 3 -2 5 12 5 14 0 19 -2 13 -5z m65 -23 c45 -27 40 -34 -5
-8 -47 27 -49 28 -37 28 5 0 24 -9 42 -20z m132 -117 c0 -8 -9 0 -50 45 l-45
47 48 -45 c26 -24 47 -45 47 -47z"/>
<path d="M1905 1334 c-16 -8 -38 -23 -49 -32 -21 -19 -50 -72 -43 -78 2 -3 27
9 55 26 64 41 115 47 164 22 45 -23 52 -19 32 19 -28 54 -100 74 -159 43z"/>
<path d="M2498 1193 c7 -3 16 -2 19 1 4 3 -2 6 -13 5 -11 0 -14 -3 -6 -6z"/>
</g>
</svg>
